<mxfile host="app.diagrams.net" modified="2022-01-21T11:50:18.058Z" agent="5.0 (Windows NT 10.0; Win64; x64) AppleWebKit/537.36 (KHTML, like Gecko) Chrome/96.0.4664.110 Safari/537.36" etag="gAIrudG2sNrtvt6YvDe7" version="16.4.3" type="github">
  <diagram id="xuJGdeC2TkNw4X6DlceN" name="第 1 页">
    <mxGraphModel dx="1422" dy="762" grid="1" gridSize="10" guides="1" tooltips="1" connect="1" arrows="1" fold="1" page="1" pageScale="1" pageWidth="827" pageHeight="1169" math="0" shadow="0">
      <root>
        <mxCell id="0" />
        <mxCell id="1" parent="0" />
        <mxCell id="88nnRV6U_WQh063bqoKS-3" style="edgeStyle=orthogonalEdgeStyle;rounded=0;orthogonalLoop=1;jettySize=auto;html=1;exitX=0.5;exitY=1;exitDx=0;exitDy=0;" edge="1" parent="1" source="88nnRV6U_WQh063bqoKS-1" target="88nnRV6U_WQh063bqoKS-2">
          <mxGeometry relative="1" as="geometry" />
        </mxCell>
        <mxCell id="88nnRV6U_WQh063bqoKS-1" value="" style="rounded=0;whiteSpace=wrap;html=1;" vertex="1" parent="1">
          <mxGeometry x="80" y="490" width="140" height="60" as="geometry" />
        </mxCell>
        <mxCell id="88nnRV6U_WQh063bqoKS-2" value="" style="shape=step;perimeter=stepPerimeter;whiteSpace=wrap;html=1;fixedSize=1;" vertex="1" parent="1">
          <mxGeometry x="200" y="630" width="120" height="80" as="geometry" />
        </mxCell>
      </root>
    </mxGraphModel>
  </diagram>
</mxfile>
